<?xml version="1.0" encoding="utf-8"?>
<!-- Svg Vector Icons : http://www.onlinewebfonts.com/icon -->
<!DOCTYPE svg PUBLIC "-//W3C//DTD SVG 1.1//EN" "http://www.w3.org/Graphics/SVG/1.1/DTD/svg11.dtd">
<svg version="1.1" xmlns="http://www.w3.org/2000/svg" xmlns:xlink="http://www.w3.org/1999/xlink" x="0px" y="0px" viewBox="0 0 1000 1000" enable-background="new 0 0 1000 1000" xml:space="preserve">
<metadata> Svg Vector Icons : http://www.onlinewebfonts.com/icon </metadata>
<g><g transform="translate(0.000000,511.000000) scale(0.100000,-0.100000)"><path d="M1142.4,4995.9c-85.9-59.1-257.9-792.4-308.9-1324.3c-72.5-762.9,56.4-1926,325-2954.8c26.9-110.1,48.3-201.5,45.7-206.8c-5.4-2.7-83.3,45.7-177.3,104.8c-182.7,120.9-257.9,118.2-257.9-8.1c0-51,56.4-102.1,282.1-257.9c155.8-107.5,308.9-193.4,338.5-196.1c45.7,0,107.5,72.5,263.2,306.2C1765.6,628.1,1857,778.5,1857,794.6c0,40.3-107.4,107.5-150.4,91.3c-18.8-5.4-85.9-91.3-147.7-188c-88.6-134.3-118.2-163.8-137-131.6c-37.6,67.1-206.8,822-274,1230.3c-182.7,1082.5-153.1,2103.3,77.9,2836.6c80.6,255.2,80.6,365.3,0,376.1C1196.2,5012,1158.6,5006.6,1142.4,4995.9z"/><path d="M2966.4,3942.9c-223-56.4-432.5-244.4-507.7-451.3c-80.6-231-72.5-265.9,593.7-2315.5C3398.9,107,3683.6-771.4,3683.6-779.5c0-5.4-88.6,59.1-193.4,147.7c-397.6,325-693,454-985.8,427.1c-507.7-45.7-819.3-599.1-591-1045c29.6-59.1,236.4-284.7,459.3-499.6c265.9-260.6,545.3-569.5,813.9-905.3c448.6-558.7,679.6-792.4,972.4-988.5c231-153.1,695.7-376.1,1071.8-515.7c292.8-107.5,295.5-110.1,373.4-354.6c51.1-163.9,166.6-276.7,284.7-276.7c88.7,0,3121.4,980.5,3215.4,1039.6c34.9,21.5,80.6,80.6,102.1,131.6c37.6,88.6,34.9,112.8-29.5,343.8l-72.5,247.1l61.8,349.2c48.4,271.3,61.8,448.6,61.8,816.6c0,813.9-69.9,1063.7-768.3,2793.7c-139.7,346.5-290.1,733.3-333.1,856.9c-139.7,408.3-400.3,609.8-760.2,588.3c-204.1-13.4-349.2-75.2-480.8-204.1c-83.3-86-94-91.3-118.2-45.7c-16.1,26.9-69.8,94-120.9,150.4c-279.4,308.9-800.5,300.8-1077.2-13.4l-83.3-96.7l-75.2,69.8c-145,137-274,185.3-491.6,185.3c-174.6,0-220.3-10.7-346.5-80.6c-80.6-45.7-177.3-126.3-214.9-180c-37.6-56.4-75.2-99.4-83.3-99.4s-115.5,314.3-239.1,703.8c-249.8,779-284.7,859.6-411,985.8C3466,3913.3,3175.9,3996.6,2966.4,3942.9z M3326.3,3451.3c43-45.7,196.1-480.8,542.6-1552.6c268.6-819.3,499.6-1520.4,518.5-1552.6c67.2-131.6,319.7-185.4,445.9-96.7c72.5,51,139.7,174.6,139.7,257.9c0,34.9-77.9,306.2-174.6,604.4c-96.7,298.2-174.6,577.5-174.6,625.9c0,61.8,26.9,112.8,94,180c88.6,88.6,104.8,94,217.6,80.6c188-18.8,225.6-80.6,397.6-599c171.9-521.1,209.5-574.9,389.5-574.9c91.3,0,131.6,16.1,193.4,77.9c104.8,104.8,102.1,188-18.8,548c-110.1,327.7-107.5,424.4,5.4,539.9c129,128.9,365.3,115.5,456.7-24.2c21.5-32.2,99.4-239.1,171.9-456.7c139.7-413.7,196.1-510.4,322.4-537.2c107.4-24.2,257.9,48.3,306.2,145c56.4,104.8,53.7,131.6-13.4,354.6c-64.5,214.9-53.7,292.8,56.4,402.9c61.8,64.5,99.4,77.9,201.5,77.9c166.5,0,252.5-86,335.8-335.8c32.2-104.8,220.3-585.6,416.4-1074.5c556.1-1383.4,642-1705.7,642-2417.6c2.7-335.8-13.4-507.7-61.8-787.1c-64.5-354.6-64.5-362.6-18.8-561.4c26.9-110.1,43-204.2,40.3-206.8c-18.8-13.4-2697-881.1-2731.9-886.5c-18.8,0-51,40.3-69.9,94c-43,126.3-134.3,249.8-225.6,314.3c-40.3,26.8-212.2,102.1-381.5,163.8c-601.7,225.7-1010,462-1308.2,749.5c-91.3,88.6-330.4,373.4-534.6,628.6c-228.3,287.4-537.2,631.3-808.6,899.9c-376.1,376.1-437.9,448.6-437.9,518.4c0,206.8,161.2,341.2,373.4,311.6c247.1-32.2,392.2-137,854.2-596.3c239.1-239.1,459.3-443.2,491.6-454c139.7-43,349.2,96.7,349.2,233.7c0,45.7-333.1,1104-738.7,2353.1s-738.7,2310.1-738.7,2355.8c0,94,83.3,220.3,171.9,257.9C3108.8,3548,3256.5,3518.5,3326.3,3451.3z"/></g></g>
</svg>